<svg width="413" height="781" viewBox="0 0 413 781" fill="none" xmlns="http://www.w3.org/2000/svg">
<g opacity="0.6">
<ellipse cx="136.476" cy="604.93" rx="93.9297" ry="93.147" transform="rotate(-90 136.476 604.93)" fill="#FFBC53" fill-opacity="0.2"/>
<circle cx="136.085" cy="604.538" r="69.2732" transform="rotate(-90 136.085 604.538)" fill="#FFBC53" fill-opacity="0.4"/>
<ellipse cx="7.71408" cy="820.965" rx="69.6645" ry="69.2732" transform="rotate(-90 7.71408 820.965)" fill="#FFBC53" fill-opacity="0.2"/>
<circle cx="7.32247" cy="820.965" r="51.6613" transform="rotate(-90 7.32247 820.965)" fill="#FFBC53" fill-opacity="0.4"/>
<ellipse cx="294.982" cy="716.077" rx="39.1374" ry="38.746" transform="rotate(-90 294.982 716.077)" fill="#FFBC53" fill-opacity="0.2"/>
<circle cx="294.591" cy="716.077" r="28.9617" transform="rotate(-90 294.591 716.077)" fill="#FFBC53" fill-opacity="0.4"/>
<ellipse cx="321.76" cy="103.714" rx="69.6645" ry="69.2732" fill="#FFBC53" fill-opacity="0.2"/>
<circle cx="321.76" cy="103.323" r="51.6613" fill="#FFBC53" fill-opacity="0.4"/>
<ellipse cx="248.965" cy="299.401" rx="46.9649" ry="46.5735" fill="#FFBC53" fill-opacity="0.2"/>
<circle cx="249.356" cy="298.618" r="34.8323" fill="#FFBC53" fill-opacity="0.4"/>
<ellipse cx="426.649" cy="390.982" rx="39.1374" ry="38.746" fill="#FFBC53" fill-opacity="0.2"/>
<circle cx="426.649" cy="390.591" r="28.9617" fill="#FFBC53" fill-opacity="0.4"/>
<ellipse cx="297.495" cy="462.995" rx="27.3962" ry="27.0048" fill="#FFBC53" fill-opacity="0.2"/>
<circle cx="297.495" cy="462.604" r="20.3514" fill="#FFBC53" fill-opacity="0.4"/>
</g>
</svg>
